<mxfile host="app.diagrams.net" modified="2023-06-22T17:25:17.203Z" agent="Mozilla/5.0 (Windows NT 10.0; Win64; x64) AppleWebKit/537.36 (KHTML, like Gecko) Chrome/114.0.0.0 Safari/537.36 Edg/114.0.1823.51" etag="nUTmT5ba3qGGmwNudrOW" version="21.5.0" type="github">
  <diagram name="PÃ¡gina-1" id="g5LrU_TNAAzlf9fm1IQQ">
    <mxGraphModel dx="2502" dy="796" grid="1" gridSize="10" guides="1" tooltips="1" connect="1" arrows="1" fold="1" page="1" pageScale="1" pageWidth="827" pageHeight="1169" math="0" shadow="0">
      <root>
        <mxCell id="0" />
        <mxCell id="1" parent="0" />
        <mxCell id="FO_JCtoEOA5tN_FxTqp9-40" style="edgeStyle=orthogonalEdgeStyle;rounded=0;orthogonalLoop=1;jettySize=auto;html=1;" parent="1" source="FO_JCtoEOA5tN_FxTqp9-1" edge="1">
          <mxGeometry relative="1" as="geometry">
            <mxPoint x="220" y="280" as="targetPoint" />
          </mxGeometry>
        </mxCell>
        <mxCell id="FO_JCtoEOA5tN_FxTqp9-1" value="&lt;font style=&quot;vertical-align: inherit;&quot;&gt;&lt;font style=&quot;vertical-align: inherit;&quot;&gt;producto&lt;/font&gt;&lt;/font&gt;" style="rounded=0;whiteSpace=wrap;html=1;" parent="1" vertex="1">
          <mxGeometry x="-40" y="225" width="120" height="60" as="geometry" />
        </mxCell>
        <mxCell id="FO_JCtoEOA5tN_FxTqp9-9" style="edgeStyle=orthogonalEdgeStyle;rounded=0;orthogonalLoop=1;jettySize=auto;html=1;entryX=0.417;entryY=1.083;entryDx=0;entryDy=0;entryPerimeter=0;" parent="1" source="FO_JCtoEOA5tN_FxTqp9-3" target="FO_JCtoEOA5tN_FxTqp9-1" edge="1">
          <mxGeometry relative="1" as="geometry">
            <mxPoint x="150" y="480" as="targetPoint" />
          </mxGeometry>
        </mxCell>
        <mxCell id="FO_JCtoEOA5tN_FxTqp9-3" value="&lt;font style=&quot;vertical-align: inherit;&quot;&gt;&lt;font style=&quot;vertical-align: inherit;&quot;&gt;descripcion&lt;/font&gt;&lt;/font&gt;" style="ellipse;whiteSpace=wrap;html=1;" parent="1" vertex="1">
          <mxGeometry x="-130" y="360" width="90" height="45" as="geometry" />
        </mxCell>
        <mxCell id="FO_JCtoEOA5tN_FxTqp9-7" style="edgeStyle=orthogonalEdgeStyle;rounded=0;orthogonalLoop=1;jettySize=auto;html=1;entryX=0;entryY=0;entryDx=0;entryDy=0;" parent="1" source="FO_JCtoEOA5tN_FxTqp9-4" target="FO_JCtoEOA5tN_FxTqp9-1" edge="1">
          <mxGeometry relative="1" as="geometry" />
        </mxCell>
        <mxCell id="FO_JCtoEOA5tN_FxTqp9-4" value="&lt;font style=&quot;vertical-align: inherit;&quot;&gt;&lt;font style=&quot;vertical-align: inherit;&quot;&gt;cantidad&lt;/font&gt;&lt;/font&gt;" style="ellipse;whiteSpace=wrap;html=1;" parent="1" vertex="1">
          <mxGeometry x="-220" y="175" width="90" height="45" as="geometry" />
        </mxCell>
        <mxCell id="FO_JCtoEOA5tN_FxTqp9-8" style="edgeStyle=orthogonalEdgeStyle;rounded=0;orthogonalLoop=1;jettySize=auto;html=1;" parent="1" source="FO_JCtoEOA5tN_FxTqp9-5" target="FO_JCtoEOA5tN_FxTqp9-1" edge="1">
          <mxGeometry relative="1" as="geometry" />
        </mxCell>
        <mxCell id="FO_JCtoEOA5tN_FxTqp9-39" value="" style="edgeStyle=orthogonalEdgeStyle;rounded=0;orthogonalLoop=1;jettySize=auto;html=1;" parent="1" source="FO_JCtoEOA5tN_FxTqp9-5" target="FO_JCtoEOA5tN_FxTqp9-4" edge="1">
          <mxGeometry relative="1" as="geometry" />
        </mxCell>
        <mxCell id="FO_JCtoEOA5tN_FxTqp9-5" value="&lt;font style=&quot;vertical-align: inherit;&quot;&gt;&lt;font style=&quot;vertical-align: inherit;&quot;&gt;&lt;font style=&quot;vertical-align: inherit;&quot;&gt;&lt;font style=&quot;vertical-align: inherit;&quot;&gt;&lt;font style=&quot;vertical-align: inherit;&quot;&gt;&lt;font style=&quot;vertical-align: inherit;&quot;&gt;precioUnitario&lt;/font&gt;&lt;/font&gt;&lt;/font&gt;&lt;/font&gt;&lt;/font&gt;&lt;/font&gt;" style="ellipse;whiteSpace=wrap;html=1;" parent="1" vertex="1">
          <mxGeometry x="-220" y="245" width="90" height="45" as="geometry" />
        </mxCell>
        <mxCell id="FO_JCtoEOA5tN_FxTqp9-33" style="edgeStyle=orthogonalEdgeStyle;rounded=0;orthogonalLoop=1;jettySize=auto;html=1;entryX=1;entryY=0.5;entryDx=0;entryDy=0;" parent="1" source="FO_JCtoEOA5tN_FxTqp9-10" target="FO_JCtoEOA5tN_FxTqp9-31" edge="1">
          <mxGeometry relative="1" as="geometry" />
        </mxCell>
        <mxCell id="FO_JCtoEOA5tN_FxTqp9-10" value="&lt;font style=&quot;vertical-align: inherit;&quot;&gt;&lt;font style=&quot;vertical-align: inherit;&quot;&gt;cliente&lt;/font&gt;&lt;/font&gt;" style="rounded=0;whiteSpace=wrap;html=1;" parent="1" vertex="1">
          <mxGeometry x="490" y="245" width="120" height="60" as="geometry" />
        </mxCell>
        <mxCell id="FO_JCtoEOA5tN_FxTqp9-14" style="edgeStyle=orthogonalEdgeStyle;rounded=0;orthogonalLoop=1;jettySize=auto;html=1;exitX=0.645;exitY=1.05;exitDx=0;exitDy=0;exitPerimeter=0;" parent="1" source="t0-7e1KeCo4MIDAsEFky-1" target="FO_JCtoEOA5tN_FxTqp9-10" edge="1">
          <mxGeometry relative="1" as="geometry">
            <mxPoint x="600" y="90" as="sourcePoint" />
          </mxGeometry>
        </mxCell>
        <mxCell id="FO_JCtoEOA5tN_FxTqp9-15" style="edgeStyle=orthogonalEdgeStyle;rounded=0;orthogonalLoop=1;jettySize=auto;html=1;" parent="1" source="FO_JCtoEOA5tN_FxTqp9-12" target="FO_JCtoEOA5tN_FxTqp9-10" edge="1">
          <mxGeometry relative="1" as="geometry" />
        </mxCell>
        <mxCell id="FO_JCtoEOA5tN_FxTqp9-12" value="&lt;font style=&quot;vertical-align: inherit;&quot;&gt;&lt;font style=&quot;vertical-align: inherit;&quot;&gt;&lt;font style=&quot;vertical-align: inherit;&quot;&gt;&lt;font style=&quot;vertical-align: inherit;&quot;&gt;&lt;font style=&quot;vertical-align: inherit;&quot;&gt;&lt;font style=&quot;vertical-align: inherit;&quot;&gt;apellido&lt;/font&gt;&lt;/font&gt;&lt;/font&gt;&lt;/font&gt;&lt;/font&gt;&lt;/font&gt;" style="ellipse;whiteSpace=wrap;html=1;" parent="1" vertex="1">
          <mxGeometry x="731.5" y="260" width="90" height="45" as="geometry" />
        </mxCell>
        <mxCell id="FO_JCtoEOA5tN_FxTqp9-16" style="edgeStyle=orthogonalEdgeStyle;rounded=0;orthogonalLoop=1;jettySize=auto;html=1;entryX=0.863;entryY=1;entryDx=0;entryDy=0;entryPerimeter=0;" parent="1" source="FO_JCtoEOA5tN_FxTqp9-13" edge="1" target="FO_JCtoEOA5tN_FxTqp9-10">
          <mxGeometry relative="1" as="geometry">
            <mxPoint x="660" y="200" as="targetPoint" />
          </mxGeometry>
        </mxCell>
        <mxCell id="FO_JCtoEOA5tN_FxTqp9-13" value="&lt;font style=&quot;vertical-align: inherit;&quot;&gt;&lt;font style=&quot;vertical-align: inherit;&quot;&gt;mail&lt;/font&gt;&lt;/font&gt;" style="ellipse;whiteSpace=wrap;html=1;" parent="1" vertex="1">
          <mxGeometry x="721.5" y="340" width="90" height="45" as="geometry" />
        </mxCell>
        <mxCell id="FO_JCtoEOA5tN_FxTqp9-38" style="edgeStyle=orthogonalEdgeStyle;rounded=0;orthogonalLoop=1;jettySize=auto;html=1;entryX=1;entryY=1;entryDx=0;entryDy=0;" parent="1" source="t0-7e1KeCo4MIDAsEFky-2" target="FO_JCtoEOA5tN_FxTqp9-31" edge="1">
          <mxGeometry relative="1" as="geometry">
            <mxPoint x="700" y="482.5" as="sourcePoint" />
          </mxGeometry>
        </mxCell>
        <mxCell id="FO_JCtoEOA5tN_FxTqp9-30" style="edgeStyle=orthogonalEdgeStyle;rounded=0;orthogonalLoop=1;jettySize=auto;html=1;" parent="1" source="FO_JCtoEOA5tN_FxTqp9-20" target="FO_JCtoEOA5tN_FxTqp9-31" edge="1">
          <mxGeometry relative="1" as="geometry" />
        </mxCell>
        <mxCell id="FO_JCtoEOA5tN_FxTqp9-20" value="&lt;font style=&quot;vertical-align: inherit;&quot;&gt;&lt;font style=&quot;vertical-align: inherit;&quot;&gt;&lt;font style=&quot;vertical-align: inherit;&quot;&gt;&lt;font style=&quot;vertical-align: inherit;&quot;&gt;&lt;font style=&quot;vertical-align: inherit;&quot;&gt;&lt;font style=&quot;vertical-align: inherit;&quot;&gt;fecha&lt;/font&gt;&lt;/font&gt;&lt;/font&gt;&lt;/font&gt;&lt;/font&gt;&lt;/font&gt;" style="ellipse;whiteSpace=wrap;html=1;" parent="1" vertex="1">
          <mxGeometry x="110" y="420" width="90" height="45" as="geometry" />
        </mxCell>
        <mxCell id="FO_JCtoEOA5tN_FxTqp9-37" style="edgeStyle=orthogonalEdgeStyle;rounded=0;orthogonalLoop=1;jettySize=auto;html=1;" parent="1" source="FO_JCtoEOA5tN_FxTqp9-21" target="FO_JCtoEOA5tN_FxTqp9-31" edge="1">
          <mxGeometry relative="1" as="geometry" />
        </mxCell>
        <mxCell id="FO_JCtoEOA5tN_FxTqp9-21" value="&lt;font style=&quot;vertical-align: inherit;&quot;&gt;&lt;font style=&quot;vertical-align: inherit;&quot;&gt;formaPago&lt;/font&gt;&lt;/font&gt;" style="ellipse;whiteSpace=wrap;html=1;" parent="1" vertex="1">
          <mxGeometry x="90" y="500" width="90" height="45" as="geometry" />
        </mxCell>
        <mxCell id="FO_JCtoEOA5tN_FxTqp9-28" style="edgeStyle=orthogonalEdgeStyle;rounded=0;orthogonalLoop=1;jettySize=auto;html=1;" parent="1" source="FO_JCtoEOA5tN_FxTqp9-22" target="FO_JCtoEOA5tN_FxTqp9-31" edge="1">
          <mxGeometry relative="1" as="geometry" />
        </mxCell>
        <mxCell id="FO_JCtoEOA5tN_FxTqp9-22" value="&lt;font style=&quot;vertical-align: inherit;&quot;&gt;&lt;font style=&quot;vertical-align: inherit;&quot;&gt;cantidad&lt;/font&gt;&lt;/font&gt;" style="ellipse;whiteSpace=wrap;html=1;" parent="1" vertex="1">
          <mxGeometry x="170" y="585" width="90" height="45" as="geometry" />
        </mxCell>
        <mxCell id="FO_JCtoEOA5tN_FxTqp9-31" value="factura" style="rhombus;whiteSpace=wrap;html=1;" parent="1" vertex="1">
          <mxGeometry x="220" y="245" width="70" height="70" as="geometry" />
        </mxCell>
        <mxCell id="FO_JCtoEOA5tN_FxTqp9-42" value="&lt;h1&gt;&lt;font style=&quot;vertical-align: inherit;&quot;&gt;&lt;font style=&quot;vertical-align: inherit;&quot;&gt;EJERCICIO3&lt;/font&gt;&lt;/font&gt;&lt;/h1&gt;" style="text;html=1;strokeColor=none;fillColor=none;spacing=5;spacingTop=-20;whiteSpace=wrap;overflow=hidden;rounded=0;" parent="1" vertex="1">
          <mxGeometry x="260" y="120" width="190" height="120" as="geometry" />
        </mxCell>
        <mxCell id="t0-7e1KeCo4MIDAsEFky-1" value="cedula" style="ellipse;whiteSpace=wrap;html=1;align=center;fontStyle=4;" vertex="1" parent="1">
          <mxGeometry x="727" y="190" width="100" height="40" as="geometry" />
        </mxCell>
        <mxCell id="t0-7e1KeCo4MIDAsEFky-2" value="cve_fac" style="ellipse;whiteSpace=wrap;html=1;align=center;fontStyle=4;" vertex="1" parent="1">
          <mxGeometry x="240" y="540" width="100" height="40" as="geometry" />
        </mxCell>
        <mxCell id="t0-7e1KeCo4MIDAsEFky-21" style="edgeStyle=orthogonalEdgeStyle;rounded=0;orthogonalLoop=1;jettySize=auto;html=1;" edge="1" parent="1" source="t0-7e1KeCo4MIDAsEFky-3" target="FO_JCtoEOA5tN_FxTqp9-1">
          <mxGeometry relative="1" as="geometry" />
        </mxCell>
        <mxCell id="t0-7e1KeCo4MIDAsEFky-3" value="cve_producto" style="ellipse;whiteSpace=wrap;html=1;align=center;fontStyle=4;" vertex="1" parent="1">
          <mxGeometry x="-10" y="120" width="100" height="40" as="geometry" />
        </mxCell>
        <mxCell id="t0-7e1KeCo4MIDAsEFky-22" value="N:N" style="text;strokeColor=none;fillColor=none;spacingLeft=4;spacingRight=4;overflow=hidden;rotatable=0;points=[[0,0.5],[1,0.5]];portConstraint=eastwest;fontSize=12;whiteSpace=wrap;html=1;" vertex="1" parent="1">
          <mxGeometry x="235" y="210" width="40" height="30" as="geometry" />
        </mxCell>
      </root>
    </mxGraphModel>
  </diagram>
</mxfile>
